PathFileType	4	(X/Y/Z)	pose_F01_0-96.trc
DataRate	CameraRate	NumFrames	NumMarkers	Units	OrigDataRate	OrigDataStartFrame	OrigNumFrames
30	30	7	21	m	30	60	96
Frame#	Time	CHip			RHip			RKnee			RAnkle			RBigToe			RSmallToe			RHeel			LHip			LKnee			LAnkle			LBigToe			LSmallToe			LHeel			Neck			Nose			RShoulder			RElbow			RWrist			LShoulder			LElbow			LWrist			
		X1	Y1	Z1	X2	Y2	Z2	X3	Y3	Z3	X4	Y4	Z4	X5	Y5	Z5	X6	Y6	Z6	X7	Y7	Z7	X8	Y8	Z8	X9	Y9	Z9	X10	Y10	Z10	X11	Y11	Z11	X12	Y12	Z12	X13	Y13	Z13	X14	Y14	Z14	X15	Y15	Z15	X16	Y16	Z16	X17	Y17	Z17	X18	Y18	Z18	X19	Y19	Z19	X20	Y20	Z20	X21	Y21	Z21	
60	2.0	-0.1941628080541744	1.886776287713294	-0.5214808997441863	-0.2006223599909504	1.8836529548783048	-0.4609632486327788	-0.20161317883978708	1.7507234436924408	-0.4049804124113672	-0.20811197911856535	1.61126193740883	-0.3130829039341104	-0.21440390972533838	1.591905749338861	-0.4344805582687659	-0.2065366794716888	1.6003397865234386	-0.4123237955319815	-0.20585926518225284	1.606881372626005	-0.31567599126281076	-0.18761077303013918	1.8901181470979758	-0.584755027845878	-0.1849653263405237	1.736251310624094	-0.6116889645235066	-0.15919453915037737	1.5923929689788003	-0.647217499536788	-0.18369146894583394	1.5520517801248117	-0.6425940143046254	-0.17108536605623573	1.559304898252598	-0.6772540480543691	-0.15112320686603437	1.5827171249486551	-0.645856349006973	-0.178011329349942	2.0413250784878603	-0.5510763682680062	-0.2004082524788788	2.112022220327047	-0.5456495620858375	-0.18242121270724768	2.030916981278185	-0.4814791276693179	-0.1887414453049111	1.951098919972191	-0.43661957053407563	-0.20512248188735221	1.8781327150911789	-0.36970276284549025	-0.17056596295853435	2.051527523624629	-0.6227089328307379	-0.2211673696337112	2.0989513978252616	-0.6183118248376825	-0.25647760551073184	2.153427262163468	-0.6129864866041166
61	2.033333333333333	-0.19301937817154347	1.8855575190109757	-0.5267484137784654	-0.20058101259955466	1.8824444273256666	-0.46940899602049	-0.2013026714815835	1.7480193185568387	-0.404819565151203	-0.2073190085578932	1.6099175932574166	-0.31154706661074516	-0.21440390972533838	1.591905749338861	-0.4344805582687659	-0.2065366794716888	1.6003397865234386	-0.4123237955319815	-0.20400083566879945	1.6026867477564652	-0.31270612818861404	-0.18720753401267926	1.8888928878721516	-0.5932163830004628	-0.1846097789547466	1.7353349609563058	-0.6120583792931148	-0.15963698726780962	1.5924267525222724	-0.6511489656101938	-0.1837097376891991	1.5522529524155602	-0.6425785273374182	-0.1720023374860014	1.559634597042705	-0.6803836750505952	-0.15089090415960935	1.5811975999760546	-0.6462367077144123	-0.17830811779706418	2.040641117829779	-0.5517985174928501	-0.2014324957154628	2.1119741512550325	-0.5486307035962584	-0.18449197948003068	2.0321238510204354	-0.47986964602069837	-0.1887414453049111	1.951098919972191	-0.43661957053407563	-0.20512248188735221	1.8781327150911789	-0.36970276284549025	-0.17058272326405285	2.051412682411858	-0.6228124836866834	-0.21724928315184933	2.094213181270699	-0.6226949751453504	-0.2588280742873836	2.1472140916731823	-0.6103811648150439
62	2.066666666666667	-0.19336678288597062	1.8806778944902731	-0.5259859834184181	-0.20294168037720564	1.8789539611328725	-0.4666807534161006	-0.20101013712303561	1.7457399941879943	-0.4046814258136297	-0.20652603799722105	1.6085732491060032	-0.31001122928737995	-0.21440390972533838	1.591905749338861	-0.4344805582687659	-0.2065366794716888	1.6003397865234386	-0.4123237955319815	-0.204290849280781	1.6043577504280375	-0.3123404854909494	-0.18550605252999636	1.8840040119633084	-0.5947325886012274	-0.18410730911566237	1.7342385945481993	-0.6124899548781156	-0.1595899999307862	1.592443189742126	-0.651126294361844	-0.18153066425942027	1.5521289557579956	-0.6447059361770736	-0.1710150404327238	1.5593169127332867	-0.677293514308476	-0.1506369494569369	1.5824225565543961	-0.6466844423767747	-0.17908281162657533	2.0393538476522584	-0.5544319434747572	-0.20143457333238687	2.1129000123684594	-0.5485885671189377	-0.18455225467146064	2.031240953406099	-0.47999573809792595	-0.1887414453049111	1.951098919972191	-0.43661957053407563	-0.20512248188735221	1.8781327150911789	-0.36970276284549025	-0.1692888960778791	2.050309273313253	-0.6276369548991577	-0.2151591795945245	2.0908885830675232	-0.6239981501108564	-0.2599519090552888	2.1386984440150263	-0.6116350783918718
63	2.1	-0.19320072061395346	1.8817571211327302	-0.5260112839929972	-0.20073676848388772	1.8785101766636585	-0.46009898374247127	-0.20339579056233	1.7468485420467799	-0.40224441637795477	-0.20815986759846897	1.611495751371404	-0.31322301198038555	-0.21440390972533838	1.591905749338861	-0.4344805582687659	-0.2065366794716888	1.6003397865234386	-0.4123237955319815	-0.2061566820382723	1.6086918682987597	-0.3155658912164632	-0.18653925496165596	1.8849828717355739	-0.5896056371364599	-0.1877482373404231	1.7338298365932616	-0.6126619130532471	-0.15893720515935184	1.5937325315912287	-0.6477493741490511	-0.18160269498445894	1.5521647437426178	-0.644830168358261	-0.1722099792724845	1.5581344676476492	-0.679837385529793	-0.149796781872348	1.58254017627094	-0.6434414243565338	-0.17905235230651656	2.037906705145224	-0.5538665855852898	-0.20240975108628978	2.111388974974004	-0.5518144089635676	-0.18445312022924526	2.030699566822267	-0.479399936217822	-0.1887414453049111	1.951098919972191	-0.43661957053407563	-0.20512248188735221	1.8781327150911789	-0.36970276284549025	-0.1684088041088812	2.048988823001769	-0.6241792699258162	-0.21319926709909473	2.0881344453293376	-0.625865465105177	-0.25598514148783713	2.135006805677944	-0.6148118189583044
64	2.1333333333333333	-0.1931816421420036	1.8844595716384906	-0.5265765305012667	-0.19986134680239206	1.882749895110411	-0.4663474062459119	-0.2013378190838406	1.7482736331720572	-0.40473729621150817	-0.20685648434625994	1.610195278682387	-0.30991821320019575	-0.21440390972533838	1.591905749338861	-0.4344805582687659	-0.2065366794716888	1.6003397865234386	-0.4123237955319815	-0.20477851961550825	1.6070679069335465	-0.31229561896934144	-0.18740646173433873	1.887717488758319	-0.5930499921952024	-0.18762181605300668	1.735284753906765	-0.6131624544334104	-0.15964027185061047	1.5924359345287633	-0.6511661928228287	-0.18232175156681335	1.5509627857237733	-0.6483044620960723	-0.17201302808168561	1.5597871113527226	-0.6805380333960132	-0.15219631569249073	1.5817611564633185	-0.6452233303989191	-0.17704172167064178	2.040411355351219	-0.5565245122124727	-0.2004894603558317	2.1104874451674185	-0.5532296393772949	-0.1844623060330668	2.0322472129339864	-0.47994766944321254	-0.1887414453049111	1.951098919972191	-0.43661957053407563	-0.20512248188735221	1.8781327150911789	-0.36970276284549025	-0.1671586139979135	2.051539416057252	-0.6297791349639069	-0.21202824851181679	2.089903327764483	-0.6323952382953524	-0.2577459782613257	2.135410195089274	-0.6209395418422615
65	2.1666666666666665	-0.19340067225886415	1.8806932483314585	-0.5259670633006643	-0.20280830415355358	1.8800565689679412	-0.4668415156323133	-0.201322110219237	1.7482566164861755	-0.4046765609736965	-0.20683961319041733	1.6102463630724309	-0.3098866935887339	-0.21440390972533838	1.591905749338861	-0.4344805582687659	-0.2065366794716888	1.6003397865234386	-0.4123237955319815	-0.20463773700422602	1.6062977407141	-0.3122707350236997	-0.18739264768372502	1.88506422350778	-0.5926548391887608	-0.18777435907007303	1.7339742007198384	-0.6126600557509492	-0.1596120493218066	1.5924349188263358	-0.6511070228700495	-0.18187097992851997	1.5509567713074566	-0.6442207913579616	-0.17224820869975344	1.5583705714777898	-0.6798504717001177	-0.15060802577473667	1.58234038268606	-0.6466521763891686	-0.177079892469565	2.0418520484339857	-0.5571423807845582	-0.19955608327812335	2.1103947725940855	-0.5503307868472496	-0.18735288098704372	2.0337994195519142	-0.4814224175123696	-0.1887414453049111	1.951098919972191	-0.43661957053407563	-0.20512248188735221	1.8781327150911789	-0.36970276284549025	-0.16712754797309415	2.050450911365628	-0.6299669031531082	-0.2129518976218349	2.088770918945041	-0.63490356738793	-0.2558048858042622	2.1341534848051666	-0.6225888469674976
66	2.2	-0.1931654006265891	1.8778687654209214	-0.5254380814869736	-0.20177436536509805	1.8760601871038922	-0.4628943590992736	-0.19982069189840604	1.744022475408693	-0.4011997628006097	-0.20683248826612413	1.6104257960821349	-0.30990162585085074	-0.21440390972533838	1.591905749338861	-0.4344805582687659	-0.2065366794716888	1.6003397865234386	-0.4123237955319815	-0.2046157994792092	1.606034406502561	-0.31255947062623163	-0.18533675345172773	1.8811757802354996	-0.5943044321264422	-0.18679743894355177	1.7313349220635974	-0.6134531316432659	-0.15928808115128668	1.5917279914982214	-0.649269831408144	-0.18169707819854866	1.5514876355557887	-0.6445599979330576	-0.1721598592328564	1.5579970875937121	-0.6798574722408662	-0.15046659662013834	1.5812270693888353	-0.6445072375411067	-0.17912150362003912	2.039365042689973	-0.5545819930414507	-0.2003419804850799	2.11283738172456	-0.5536637544746423	-0.1873656270901457	2.0321727893951125	-0.480772230785662	-0.1887414453049111	1.951098919972191	-0.43661957053407563	-0.20512248188735221	1.8781327150911789	-0.36970276284549025	-0.16801941829069159	2.050538340612166	-0.6330264663637503	-0.21289143611120398	2.089967503579418	-0.6348768959820601	-0.2565942611578663	2.1344337139978675	-0.6255482306799364
